<svg width="95" height="95" viewBox="0 0 95 95" fill="none" xmlns="http://www.w3.org/2000/svg">
<path d="M41.2046 65.5982H13.2983C12.1297 65.5982 11.009 65.134 10.1827 64.3077C9.35632 63.4813 8.89209 62.3606 8.89209 61.192V59.7232C8.89209 59.1651 9.36209 56.7857 13.2983 56.7857C17.2346 56.7857 17.7046 59.312 17.7046 59.826C17.7307 60.1975 17.8968 60.5452 18.1695 60.7987C18.4422 61.0523 18.801 61.1929 19.1733 61.192C19.5629 61.192 19.9365 61.0372 20.2119 60.7618C20.4874 60.4863 20.6421 60.1128 20.6421 59.7232V20.067H74.9858C76.1545 20.067 77.2752 20.5312 78.1015 21.3575C78.9279 22.1839 79.3921 23.3046 79.3921 24.4732V28.8795H82.3296V24.4732C82.3296 22.5255 81.5559 20.6576 80.1787 19.2804C78.8014 17.9032 76.9335 17.1295 74.9858 17.1295H20.4952C20.1328 15.3447 19.1202 13.7583 17.6539 12.6781C16.1876 11.598 14.3723 11.1012 12.5603 11.2843C10.7483 11.4673 9.06903 12.3171 7.84836 13.6686C6.62769 15.0201 5.95276 16.777 5.95459 18.5982V61.192C5.95459 63.1396 6.72831 65.0076 8.10553 66.3848C9.48275 67.762 11.3507 68.5357 13.2983 68.5357H41.2046V65.5982ZM8.89209 18.5982C8.89209 17.4296 9.35632 16.3089 10.1827 15.4825C11.009 14.6562 12.1297 14.192 13.2983 14.192C14.467 14.192 15.5877 14.6562 16.414 15.4825C17.2404 16.3089 17.7046 17.4296 17.7046 18.5982V54.9204C16.3605 54.1694 14.8372 53.7987 13.2983 53.8482C11.7595 53.7987 10.2362 54.1694 8.89209 54.9204V18.5982ZM44.1421 36.2232V27.4107C44.1421 27.0212 43.9874 26.6476 43.7119 26.3722C43.4365 26.0967 43.0629 25.942 42.6733 25.942H25.0483C24.6588 25.942 24.2852 26.0967 24.0098 26.3722C23.7343 26.6476 23.5796 27.0212 23.5796 27.4107V36.2232C23.5796 36.6128 23.7343 36.9863 24.0098 37.2618C24.2852 37.5372 24.6588 37.692 25.0483 37.692H42.6733C43.0629 37.692 43.4365 37.5372 43.7119 37.2618C43.9874 36.9863 44.1421 36.6128 44.1421 36.2232ZM41.2046 34.7545H26.5171V28.8795H41.2046V34.7545ZM38.2671 45.0357H23.5796V42.0982H38.2671V45.0357ZM38.2671 52.3795H23.5796V49.442H38.2671V52.3795ZM23.5796 56.7857H38.2671V59.7232H23.5796V56.7857ZM73.5171 46.3135L75.6468 47.7823L77.2624 45.3442L59.6374 33.5942C59.3976 33.4362 59.1167 33.3521 58.8296 33.3521C58.5424 33.3521 58.2616 33.4362 58.0218 33.5942L40.3968 45.3442L42.0124 47.7823L44.1421 46.3135V70.0045C44.1421 71.1731 44.6063 72.2938 45.4327 73.1202C46.259 73.9465 47.3797 74.4107 48.5483 74.4107H69.1108C70.2795 74.4107 71.4002 73.9465 72.2265 73.1202C73.0529 72.2938 73.5171 71.1731 73.5171 70.0045V46.3135ZM55.8921 71.4732V62.6607H61.7671V71.4732H55.8921ZM69.1108 71.4732H64.7046V61.192C64.7046 60.8024 64.5499 60.4288 64.2744 60.1534C63.999 59.878 63.6254 59.7232 63.2358 59.7232H54.4233C54.0338 59.7232 53.6602 59.878 53.3848 60.1534C53.1093 60.4288 52.9546 60.8024 52.9546 61.192V71.4732H48.5483C48.1588 71.4732 47.7852 71.3185 47.5098 71.043C47.2343 70.7676 47.0796 70.394 47.0796 70.0045V44.3601L58.8296 36.517L70.5796 44.3601V70.0045C70.5796 70.394 70.4249 70.7676 70.1494 71.043C69.874 71.3185 69.5004 71.4732 69.1108 71.4732ZM82.7555 37.266L80.8608 35.3567L78.9662 37.266L76.8805 35.1804L79.818 32.2429C79.9546 32.1052 80.117 31.996 80.296 31.9214C80.475 31.8468 80.667 31.8085 80.8608 31.8085C81.0547 31.8085 81.2467 31.8468 81.4257 31.9214C81.6047 31.996 81.7671 32.1052 81.9037 32.2429L84.8412 35.1804L82.7555 37.266ZM82.7555 70.4304L84.8412 72.516L81.9037 75.4535C81.7671 75.5912 81.6047 75.7005 81.4257 75.775C81.2467 75.8496 81.0547 75.888 80.8608 75.888C80.667 75.888 80.475 75.8496 80.296 75.775C80.117 75.7005 79.9546 75.5912 79.818 75.4535L76.8805 72.516L78.9662 70.4304L80.8608 72.3398L82.7555 70.4304ZM79.3921 39.1607H82.3296V68.5357H79.3921V39.1607ZM47.0796 78.817H70.5796V81.7545H47.0796V78.817ZM45.1849 78.391L43.2755 80.2857L45.1849 82.1804L43.0993 84.266L40.1618 81.3285C40.0241 81.192 39.9148 81.0295 39.8403 80.8506C39.7657 80.6716 39.7273 80.4796 39.7273 80.2857C39.7273 80.0918 39.7657 79.8998 39.8403 79.7209C39.9148 79.5419 40.0241 79.3794 40.1618 79.2429L43.0993 76.3054L45.1849 78.391ZM77.4974 79.2429C77.6351 79.3794 77.7443 79.5419 77.8189 79.7209C77.8935 79.8998 77.9319 80.0918 77.9319 80.2857C77.9319 80.4796 77.8935 80.6716 77.8189 80.8506C77.7443 81.0295 77.6351 81.192 77.4974 81.3285L74.5599 84.266L72.4743 82.1804L74.3837 80.2857L72.4743 78.391L74.5599 76.3054L77.4974 79.2429Z" fill="black"/>
<g clip-path="url(#clip0_80_1459)">
<path d="M69.2616 27.3852L68.7699 27.9698L68.3765 28.4376L67.9831 27.9698L67.4913 27.3852L67.4913 27.3852C67.2426 27.0896 66.8667 26.9148 66.4969 26.9148C66.173 26.9148 65.8879 27.0346 65.6831 27.2407L65.6831 27.2407C65.4773 27.4476 65.3563 27.7379 65.3563 28.0694C65.3563 28.4868 65.5292 28.9457 66.0544 29.5978C66.5864 30.2584 67.3937 31.0063 68.3765 31.9086C69.3592 31.0062 70.1665 30.2584 70.6986 29.5978C71.2238 28.9456 71.3966 28.4868 71.3966 28.0694C71.3966 27.7379 71.2756 27.4477 71.0699 27.2407L69.2616 27.3852ZM69.2616 27.3852C69.5103 27.0896 69.8862 26.9148 70.256 26.9148M69.2616 27.3852L70.256 26.9148M70.256 26.9148C70.5799 26.9148 70.865 27.0346 71.0698 27.2406L70.256 26.9148ZM67.4231 33.3014L67.4231 33.3014L67.4264 33.3044L68.0321 33.8508L68.3765 34.1614L68.7208 33.8508L69.3265 33.3044L69.3265 33.3044L69.3298 33.3014C69.3654 33.2687 69.4008 33.2363 69.436 33.2039C70.4555 32.2681 71.3419 31.4545 71.9731 30.6786C72.6328 29.8677 73.0673 29.0354 73.0673 28.0694C73.0673 26.4857 71.8377 25.2441 70.256 25.2441C69.5589 25.2441 68.8967 25.4952 68.3765 25.9215C67.8562 25.4952 67.1941 25.2441 66.4969 25.2441C64.9152 25.2441 63.6856 26.4857 63.6856 28.0694C63.6856 29.0354 64.1202 29.8678 64.7798 30.6786C65.4111 31.4546 66.2975 32.2682 67.3171 33.2041C67.3523 33.2364 67.3876 33.2688 67.4231 33.3014Z" fill="#E63946"/>
<path d="M69.2616 27.3852L68.7699 27.9698L68.3765 28.4376L67.9831 27.9698L67.4913 27.3852L67.4913 27.3852C67.2426 27.0896 66.8667 26.9148 66.4969 26.9148C66.173 26.9148 65.8879 27.0346 65.6831 27.2407L65.6831 27.2407C65.4773 27.4476 65.3563 27.7379 65.3563 28.0694C65.3563 28.4868 65.5292 28.9457 66.0544 29.5978C66.5864 30.2584 67.3937 31.0063 68.3765 31.9086C69.3592 31.0062 70.1665 30.2584 70.6986 29.5978C71.2238 28.9456 71.3966 28.4868 71.3966 28.0694C71.3966 27.7379 71.2756 27.4477 71.0699 27.2407L69.2616 27.3852ZM69.2616 27.3852C69.5103 27.0896 69.8862 26.9148 70.256 26.9148M69.2616 27.3852L70.256 26.9148M70.256 26.9148C70.5799 26.9148 70.865 27.0346 71.0698 27.2406L70.256 26.9148ZM67.4231 33.3014L67.4231 33.3014L67.4264 33.3044L68.0321 33.8508L68.3765 34.1614L68.7208 33.8508L69.3265 33.3044L69.3265 33.3044L69.3298 33.3014C69.3654 33.2687 69.4008 33.2363 69.436 33.2039C70.4555 32.2681 71.3419 31.4545 71.9731 30.6786C72.6328 29.8677 73.0673 29.0354 73.0673 28.0694C73.0673 26.4857 71.8377 25.2441 70.256 25.2441C69.5589 25.2441 68.8967 25.4952 68.3765 25.9215C67.8562 25.4952 67.1941 25.2441 66.4969 25.2441C64.9152 25.2441 63.6856 26.4857 63.6856 28.0694C63.6856 29.0354 64.1202 29.8678 64.7798 30.6786C65.4111 31.4546 66.2975 32.2682 67.3171 33.2041C67.3523 33.2364 67.3876 33.2688 67.4231 33.3014Z" stroke="#E63946" stroke-width="1.02812"/>
<path d="M69.2616 27.3852L68.7699 27.9698L68.3765 28.4376L67.9831 27.9698L67.4913 27.3852L67.4913 27.3852C67.2426 27.0896 66.8667 26.9148 66.4969 26.9148C66.173 26.9148 65.8879 27.0346 65.6831 27.2407L65.6831 27.2407C65.4773 27.4476 65.3563 27.7379 65.3563 28.0694C65.3563 28.4868 65.5292 28.9457 66.0544 29.5978C66.5864 30.2584 67.3937 31.0063 68.3765 31.9086C69.3592 31.0062 70.1665 30.2584 70.6986 29.5978C71.2238 28.9456 71.3966 28.4868 71.3966 28.0694C71.3966 27.7379 71.2756 27.4477 71.0699 27.2407L69.2616 27.3852ZM69.2616 27.3852C69.5103 27.0896 69.8862 26.9148 70.256 26.9148M69.2616 27.3852L70.256 26.9148M70.256 26.9148C70.5799 26.9148 70.865 27.0346 71.0698 27.2406L70.256 26.9148ZM67.4231 33.3014L67.4231 33.3014L67.4264 33.3044L68.0321 33.8508L68.3765 34.1614L68.7208 33.8508L69.3265 33.3044L69.3265 33.3044L69.3298 33.3014C69.3654 33.2687 69.4008 33.2363 69.436 33.2039C70.4555 32.2681 71.3419 31.4545 71.9731 30.6786C72.6328 29.8677 73.0673 29.0354 73.0673 28.0694C73.0673 26.4857 71.8377 25.2441 70.256 25.2441C69.5589 25.2441 68.8967 25.4952 68.3765 25.9215C67.8562 25.4952 67.1941 25.2441 66.4969 25.2441C64.9152 25.2441 63.6856 26.4857 63.6856 28.0694C63.6856 29.0354 64.1202 29.8678 64.7798 30.6786C65.4111 31.4546 66.2975 32.2682 67.3171 33.2041C67.3523 33.2364 67.3876 33.2688 67.4231 33.3014Z" stroke="black" stroke-width="1.02812"/>
</g>
<defs>
<clipPath id="clip0_80_1459">
<rect width="10.2812" height="10.2812" fill="white" transform="translate(63.2358 24.473)"/>
</clipPath>
</defs>
</svg>
