<svg width="20" height="20" viewBox="0 0 20 20" fill="none" xmlns="http://www.w3.org/2000/svg">
<g clip-path="url(#clip0_80_3646)">
<path d="M13.8774 6.19133C14.1868 5.88187 14.6888 5.88187 14.9982 6.19133C15.3077 6.50089 15.3077 7.00284 14.9982 7.3123L9.04534 13.2654C8.73578 13.5748 8.23383 13.5748 7.92437 13.2654L4.94783 10.2888C4.63837 9.97938 4.63837 9.47743 4.94783 9.16798C5.25739 8.85841 5.75934 8.85841 6.0688 9.16798L8.48486 11.584L13.8774 6.19133ZM9.97297 0.228516C12.5959 0.228516 14.9712 1.29202 16.6904 3.01118C18.4095 4.73024 19.473 7.1056 19.473 9.72846C19.473 12.3518 18.4096 14.7267 16.6904 16.4458C14.9712 18.165 12.5959 19.2285 9.97297 19.2285C7.34979 19.2285 4.97475 18.1651 3.25569 16.4458C1.53631 14.7267 0.473022 12.3518 0.473022 9.72846C0.473022 7.1056 1.53652 4.73024 3.25569 3.01118C4.97475 1.2918 7.34979 0.228516 9.97297 0.228516ZM15.5695 4.13205C14.1374 2.70001 12.1586 1.81415 9.97297 1.81415C7.78721 1.81415 5.80848 2.70001 4.37655 4.13205C2.94452 5.56408 2.05866 7.54292 2.05866 9.72846C2.05866 11.9143 2.94452 13.8931 4.37655 15.325C5.80848 16.757 7.78721 17.6428 9.97297 17.6428C12.1586 17.6428 14.1374 16.757 15.5695 15.325C17.0015 13.8931 17.8873 11.9143 17.8873 9.72846C17.8873 7.54292 17.0015 5.56408 15.5695 4.13205Z" fill="white"/>
</g>
<defs>
<clipPath id="clip0_80_3646">
<rect width="19" height="19" fill="white" transform="translate(0.473022 0.228516)"/>
</clipPath>
</defs>
</svg>
