<svg width="81" height="48" viewBox="0 0 81 48" fill="none" xmlns="http://www.w3.org/2000/svg">
<path d="M11.8483 32.2773C11.6386 32.2774 11.4319 32.2272 11.2451 32.1307L1.20611 26.8995C0.896591 26.7384 0.662718 26.4599 0.555605 26.1248C0.448492 25.7897 0.476852 25.4254 0.634484 25.1114L12.4278 1.54565C12.5061 1.38918 12.6142 1.24987 12.7458 1.13574C12.8774 1.0216 13.03 0.93487 13.1949 0.880525C13.3597 0.82618 13.5335 0.805289 13.7063 0.819049C13.8791 0.832808 14.0476 0.880947 14.202 0.960707L23.7523 5.89078C24.0589 6.04862 24.2923 6.32157 24.4026 6.65125C24.5129 6.98093 24.4913 7.34118 24.3424 7.65494L13.0363 31.5165C12.9599 31.677 12.8527 31.8204 12.7208 31.9385C12.589 32.0565 12.4352 32.1468 12.2685 32.204C12.1331 32.2508 11.9913 32.2755 11.8483 32.2773ZM3.57558 25.1354L11.2464 29.1327L21.4118 7.68026L14.1809 3.9494L3.57558 25.1354Z" fill="black"/>
<path d="M25.4935 13.7342C25.2669 13.7341 25.0441 13.6749 24.8468 13.5623L21.0193 11.3811C20.8685 11.2953 20.736 11.1803 20.6292 11.0426C20.5224 10.9049 20.4434 10.7474 20.3968 10.5788C20.3502 10.4103 20.3369 10.2342 20.3576 10.0604C20.3783 9.8867 20.4326 9.7188 20.5175 9.5663C20.6023 9.41381 20.716 9.27971 20.8521 9.17167C20.9881 9.06363 21.1439 8.98376 21.3105 8.93662C21.4771 8.88947 21.6512 8.87599 21.8229 8.89692C21.9946 8.91786 22.1606 8.97281 22.3114 9.05864L25.4724 10.8588C26.7065 10.1019 29.3776 8.47236 31.0872 7.49567C33.8782 5.89673 35.8433 6.11659 38.0995 8.27915C38.3465 8.52367 38.4886 8.8566 38.4952 9.20614C38.5018 9.55569 38.3723 9.89386 38.1347 10.1477C37.8971 10.4016 37.5703 10.5508 37.225 10.5631C36.8796 10.5755 36.5433 10.4501 36.2885 10.2139C34.8871 8.87076 34.1574 8.80148 32.3833 9.81414C30.1863 11.0706 26.2232 13.5144 26.1823 13.545C25.9743 13.671 25.7359 13.7365 25.4935 13.7342Z" fill="black"/>
<path d="M60.1425 36.9184C59.1827 36.9433 58.2359 36.6904 57.4134 36.1895C56.2017 35.3714 50.8701 30.0815 49.8137 29.0302C49.5809 28.7795 49.4529 28.4473 49.4566 28.1032C49.4604 27.7592 49.5955 27.4299 49.8338 27.1844C50.0721 26.9389 50.395 26.7961 50.735 26.786C51.0749 26.7759 51.4056 26.8992 51.6577 27.1302C54.0285 29.4979 58.0957 33.4486 58.8715 33.9723C59.3715 34.206 59.9245 34.2992 60.4724 34.242C61.0203 34.1848 61.5428 33.9793 61.9851 33.6472C62.1922 33.4655 62.3574 33.24 62.4689 32.9867C62.5804 32.7333 62.6356 32.4583 62.6306 32.181C62.6256 31.9037 62.5605 31.6309 62.4398 31.3819C62.3192 31.1329 62.146 30.9137 61.9324 30.7398C60.5863 29.2075 54.9939 23.7644 53.7664 22.5705C49.483 20.9822 45.3293 19.0566 41.3434 16.8117L39.9578 17.7284C39.6467 19.1893 38.8168 20.484 37.6252 21.3673C37.207 21.7006 36.7215 21.9369 36.203 22.0594C35.6845 22.1818 35.1458 22.1876 34.6249 22.0762C33.9928 21.9965 33.3841 21.7842 32.8377 21.4529C32.2914 21.1216 31.8194 20.6785 31.452 20.1521C30.7516 18.6382 30.6729 16.9051 31.2333 15.3326C32.3568 10.7836 34.1797 9.61242 36.702 7.99216L37.2565 7.63372C40.0356 5.82825 42.4208 4.86622 45.0392 6.05877C46.6672 6.80094 52.4453 9.06478 54.0864 9.70702L59.5867 7.88289C59.9161 7.78153 60.2718 7.81475 60.5773 7.97543C60.8829 8.13612 61.1141 8.41149 61.2214 8.74255C61.3287 9.0736 61.3036 9.434 61.1514 9.74654C60.9992 10.0591 60.7321 10.2989 60.4072 10.4146L54.4605 12.3866C54.1726 12.4816 53.8611 12.4741 53.578 12.3653C53.2659 12.2427 45.9191 9.38324 43.9632 8.49049C42.7896 7.95751 41.5502 8.01214 38.6842 9.87491L38.1178 10.2413C35.8169 11.719 34.6618 12.4625 33.7925 15.9789C33.3473 17.7803 33.5528 18.5105 33.7148 18.777C33.9229 19.1288 34.4049 19.2714 35.1728 19.4659C35.3376 19.494 35.5066 19.4847 35.6674 19.4386C35.8282 19.3925 35.9769 19.3108 36.1027 19.1994C36.4742 18.9163 36.7844 18.5592 37.0144 18.1501C37.2443 17.7411 37.389 17.2887 37.4395 16.821C37.4567 16.6201 37.5188 16.4258 37.621 16.2527C37.7232 16.0796 37.8629 15.9322 38.0296 15.8216L40.565 14.1441C40.7649 14.0126 40.9962 13.9384 41.2344 13.9295C41.4727 13.9206 41.7088 13.9773 41.9177 14.0935C42.0073 14.1428 50.8872 19.0555 54.7766 20.0895C54.9928 20.1479 55.1911 20.2601 55.3535 20.4159C55.638 20.6918 62.3341 27.1781 63.9068 28.9729C64.3425 29.3997 64.6881 29.9115 64.9224 30.4773C65.1568 31.0432 65.2751 31.6513 65.2702 32.2649C65.2652 32.8784 65.1372 33.4845 64.8938 34.0464C64.6503 34.6084 64.2966 35.1144 63.8541 35.5339C62.8406 36.464 61.5102 36.9603 60.1425 36.9184Z" fill="black"/>
<path d="M62.9221 31.1875C62.6203 31.1873 62.3277 31.0822 62.0933 30.8899C61.859 30.6975 61.697 30.4296 61.6345 30.1309C61.572 29.8322 61.6128 29.5208 61.7501 29.2489C61.8874 28.977 62.1128 28.7611 62.3887 28.6372L67.0091 26.5665C67.1679 26.4907 67.3401 26.4477 67.5156 26.4402C67.6911 26.4326 67.8663 26.4607 68.0309 26.5226C68.1955 26.5846 68.3462 26.6792 68.4741 26.801C68.602 26.9228 68.7045 27.0692 68.7757 27.2316C68.8468 27.3941 68.8852 27.5693 68.8884 27.7469C68.8916 27.9246 68.8597 28.1011 68.7945 28.266C68.7293 28.431 68.6321 28.5812 68.5087 28.7076C68.3853 28.834 68.2382 28.9342 68.076 29.0023L63.4542 31.0782C63.2863 31.1516 63.1051 31.1888 62.9221 31.1875Z" fill="black"/>
<path d="M68.9634 32.2774C68.7009 32.2772 68.4444 32.1978 68.2269 32.0492C68.0093 31.9005 67.8406 31.6895 67.7424 31.4432L57.8009 6.49175C57.7345 6.32535 57.702 6.14709 57.7053 5.96765C57.7086 5.78822 57.7477 5.61132 57.8203 5.44756C57.8929 5.2838 57.9974 5.13656 58.1276 5.01467C58.2578 4.89278 58.411 4.79876 58.578 4.73825L69.2018 0.892789C69.5232 0.776489 69.8766 0.790952 70.1877 0.933129C70.4988 1.07531 70.7431 1.33409 70.8693 1.65495L80.6158 26.4039C80.6796 26.5675 80.7107 26.7423 80.7074 26.9181C80.704 27.094 80.6663 27.2674 80.5964 27.4285C80.5265 27.5895 80.4258 27.7349 80.3 27.8564C80.1743 27.9778 80.026 28.0729 79.8638 28.1361L69.4349 32.1841C69.2847 32.2442 69.1249 32.2758 68.9634 32.2774ZM60.7526 6.77956L69.697 29.2274L77.6708 26.1361L68.8923 3.83484L60.7526 6.77956ZM54.2092 40.9596C53.1234 40.9925 52.0631 40.6235 51.2273 39.9216C49.4637 38.336 44.9302 33.7524 44.7379 33.5578C44.498 33.3065 44.3652 32.97 44.3682 32.6206C44.3712 32.2712 44.5097 31.937 44.7539 31.69C44.9981 31.4429 45.3285 31.3028 45.6738 31.2998C46.0192 31.2967 46.3519 31.431 46.6003 31.6738C46.6464 31.7204 51.272 36.3973 52.9764 37.9363C53.3297 38.154 53.7297 38.2822 54.1424 38.3101C54.5552 38.3379 54.9685 38.2645 55.3472 38.0962C55.9656 37.8828 56.5143 37.5016 56.9333 36.9943C57.3523 36.487 57.6255 35.8731 57.7232 35.2194C57.7526 35.047 57.8153 34.8821 57.9077 34.7341C58.0001 34.5862 58.1204 34.4581 58.2617 34.3572C58.4031 34.2563 58.5626 34.1846 58.7314 34.1461C58.9001 34.1076 59.0747 34.1031 59.2451 34.1328C59.4156 34.1625 59.5786 34.226 59.7248 34.3194C59.8711 34.4129 59.9977 34.5346 60.0974 34.6776C60.1971 34.8205 60.2681 34.982 60.3061 35.1527C60.3442 35.3234 60.3486 35.5 60.3192 35.6724C60.1402 36.7918 59.6648 37.8413 58.9436 38.7093C58.2224 39.5773 57.2823 40.2316 56.223 40.6025C55.5763 40.8348 54.8955 40.9555 54.2092 40.9596Z" fill="black"/>
<path d="M48.0797 44.1893C46.9962 44.2361 45.9374 43.8537 45.1281 43.1234L40.4497 38.3905L42.3134 36.5051L46.9918 41.2379C47.2813 41.4024 47.6017 41.5035 47.9323 41.5347C48.2628 41.5659 48.5962 41.5266 48.9108 41.4191C49.515 41.2691 50.0682 40.9575 50.5126 40.5171C50.957 40.0766 51.2763 39.5235 51.437 38.9155C51.4857 38.7459 51.5673 38.5877 51.6769 38.4503C51.7866 38.3129 51.9221 38.1989 52.0758 38.1149C52.2294 38.0309 52.3979 37.9787 52.5717 37.9613C52.7454 37.9438 52.9208 37.9615 53.0878 38.0132C53.2547 38.065 53.4098 38.1498 53.544 38.2627C53.6782 38.3757 53.7889 38.5145 53.8697 38.6711C53.9504 38.8277 53.9995 38.999 54.0142 39.175C54.0289 39.351 54.0089 39.5282 53.9553 39.6963C53.5889 40.9876 52.8181 42.1237 51.7588 42.9339C50.6996 43.7441 49.4077 44.1846 48.0797 44.1893Z" fill="black"/>
<path d="M43.0588 47.7483C41.982 47.7715 40.9291 47.4265 40.0703 46.769C38.8838 45.808 37.6918 44.8539 36.4943 43.9069C36.3552 43.8002 36.2384 43.6666 36.1507 43.5139C36.063 43.3611 36.0063 43.1923 35.9837 43.0171C35.9611 42.842 35.9732 42.664 36.0192 42.4937C36.0653 42.3233 36.1443 42.1638 36.2518 42.0246C36.3592 41.8855 36.493 41.7693 36.6453 41.6828C36.7975 41.5964 36.9653 41.5415 37.1387 41.5212C37.3121 41.5009 37.4878 41.5158 37.6556 41.5648C37.8233 41.6139 37.9797 41.6962 38.1157 41.8069C38.1157 41.8069 39.7607 43.1061 41.7166 44.689C42.1334 44.9399 42.6073 45.0771 43.0921 45.0872C43.577 45.0972 44.0561 44.9798 44.4826 44.7463C44.8639 44.5805 45.1866 44.3016 45.4081 43.9464C45.6296 43.5913 45.7395 43.1766 45.7233 42.757C45.7126 42.4038 45.8411 42.0607 46.0805 41.8034C46.3198 41.546 46.6504 41.3953 46.9996 41.3845C47.3477 41.3783 47.6844 41.51 47.9379 41.7515C48.1913 41.993 48.3415 42.3251 48.3562 42.677C48.3872 43.6052 48.1481 44.5221 47.6686 45.314C47.1891 46.1059 46.4902 46.7378 45.6587 47.1314C44.8504 47.5362 43.9608 47.7473 43.0588 47.7483Z" fill="black"/>
<path d="M33.1881 47.1317C32.76 47.1301 32.3364 47.0441 31.9408 46.8785C30.8668 46.3454 29.9815 45.4902 29.4054 44.4295C28.4707 44.613 27.502 44.4657 26.6619 44.0124C25.9571 43.5451 25.3513 42.9407 24.8796 42.2343C24.4079 41.5279 24.0798 40.7337 23.9144 39.8978C23.845 39.5575 23.9097 39.2032 24.0948 38.9105C25.1656 37.2209 26.7804 34.5946 27.0214 34.047C27.2383 33.6101 27.546 33.2258 27.9233 32.9204C28.3007 32.6149 28.7389 32.3957 29.2078 32.2775C29.8457 32.1084 30.5129 32.0857 31.1606 32.2111C31.8082 32.3365 32.42 32.6069 32.951 33.0024C33.5396 33.3965 34.0122 33.9439 34.3191 34.5868C34.6259 35.2298 34.7558 35.9446 34.6949 36.6559C35.3214 36.6832 35.9348 36.8462 36.4937 37.1337C37.0527 37.4213 37.5441 37.8268 37.935 38.3228C38.3146 38.923 38.5569 39.6014 38.6442 40.3084C38.7315 41.0155 38.6615 41.7333 38.4394 42.4095C37.7486 44.3601 36.3302 45.9595 34.4881 46.8652C34.0768 47.0411 33.6347 47.1317 33.1881 47.1317ZM31.6234 42.9731C32.037 43.6806 32.7759 44.696 33.4673 44.4042C34.6154 43.7993 35.4992 42.783 35.9461 41.554C36.0341 41.2821 36.0677 40.9951 36.0451 40.7099C36.0225 40.4246 35.9441 40.1468 35.8144 39.8925C35.6141 39.6939 35.3762 39.5383 35.1151 39.4348C34.8539 39.3313 34.5748 39.2822 34.2945 39.2902L31.6234 42.9731ZM26.6303 39.8418C26.8398 40.5822 27.294 41.2275 27.9171 41.67C28.1116 41.7709 28.3245 41.8305 28.5427 41.8449C28.7608 41.8594 28.9796 41.8284 29.1854 41.7539L31.9975 36.8771C32.1092 36.5758 32.1164 36.2449 32.0178 35.9388C31.9192 35.6328 31.7207 35.3698 31.4548 35.1929C31.2526 35.0316 31.0191 34.915 30.7696 34.8505C30.5201 34.786 30.2599 34.7751 30.006 34.8185C29.7818 34.8559 29.5772 34.9702 29.4265 35.1423C29.0788 35.9218 27.406 38.608 26.6303 39.8418Z" fill="black"/>
<path d="M23.1213 41.9235C22.8092 41.9244 22.4987 41.8795 22.1993 41.7902C19.9431 41.104 19.0594 38.1487 18.9658 37.8142C18.9186 37.6446 18.9051 37.4671 18.9261 37.2921C18.9472 37.1172 19.0023 36.9482 19.0883 36.7949C20.2078 34.8276 21.4461 32.9319 22.796 31.1186C23.4737 30.2268 24.4556 29.6224 25.5501 29.4236C26.6445 29.2247 27.773 29.4457 28.7151 30.0434C29.9584 30.9161 30.8698 32.8149 29.3446 35.2959C29.2534 35.4446 29.1341 35.5737 28.9935 35.6758C28.853 35.7779 28.6939 35.851 28.5254 35.8909C28.357 35.9308 28.1824 35.9367 28.0116 35.9084C27.8409 35.88 27.6773 35.8179 27.5303 35.7256C27.3833 35.6333 27.2557 35.5126 27.1548 35.3704C27.0539 35.2282 26.9816 35.0673 26.9422 34.8969C26.9027 34.7264 26.8969 34.5498 26.9249 34.3771C26.9529 34.2043 27.0143 34.0389 27.1055 33.8901C27.444 33.3372 27.7378 32.603 27.2122 32.2339C26.8282 32.0217 26.3814 31.9563 25.9536 32.0498C25.5258 32.1432 25.1456 32.3892 24.8823 32.7429C23.7252 34.2983 22.6545 35.9175 21.6751 37.593C21.9636 38.2899 22.4549 39.088 22.9567 39.2386C23.4005 39.3719 24.0104 38.9108 24.3409 38.6257C24.6054 38.3946 24.9497 38.2792 25.2983 38.3049C25.6468 38.3307 25.9709 38.4954 26.1994 38.7629C26.4278 39.0304 26.5419 39.3788 26.5164 39.7314C26.491 40.084 26.3282 40.4119 26.0637 40.643C25.2718 41.4212 24.2243 41.877 23.1213 41.9235Z" fill="black"/>
<path d="M20.23 38.7801C20.0853 38.7799 19.9415 38.7556 19.8046 38.7081C19.582 38.6322 14.332 36.776 14.332 32.6161C14.3319 32.4764 14.3532 32.3375 14.3953 32.2044C14.8718 30.8776 15.5245 29.6225 16.3353 28.4735C16.9388 27.7441 17.7722 27.2473 18.6953 27.0667C19.6184 26.8861 20.5749 27.0329 21.4036 27.4822C22.1837 27.8319 22.8058 28.4648 23.1472 29.2559C23.4886 30.047 23.5244 30.9389 23.2475 31.7554C22.3861 34.5615 21.5024 37.7687 21.4931 37.802C21.4158 38.0822 21.2499 38.329 21.0209 38.5049C20.7919 38.6808 20.5123 38.776 20.2248 38.7761L20.23 38.7801ZM16.9768 32.8227C17.1085 34.0698 18.3703 35.0185 19.3818 35.5875C19.7256 34.3723 20.2353 32.6041 20.7358 30.9692C20.7817 30.8654 20.8052 30.7528 20.8047 30.639C20.8042 30.5252 20.7797 30.4129 20.7328 30.3094C20.6859 30.206 20.6178 30.1139 20.5329 30.0393C20.448 29.9646 20.3483 29.9092 20.2406 29.8766C19.9684 29.7213 19.6569 29.6511 19.3454 29.6748C19.0338 29.6985 18.7362 29.8151 18.4901 30.0099C17.8795 30.8849 17.3716 31.8288 16.9768 32.8227Z" fill="black"/>
<path d="M16.7315 31.6501C16.4663 31.6498 16.2074 31.5685 15.9886 31.4169L12.5338 29.0185C12.2455 28.8188 12.0473 28.5114 11.983 28.164C11.9186 27.8165 11.9934 27.4574 12.1907 27.1657C12.3881 26.874 12.6919 26.6735 13.0354 26.6084C13.3789 26.5433 13.7338 26.6189 14.0222 26.8186L17.4769 29.217C17.7096 29.3777 17.8853 29.6096 17.9781 29.8787C18.0709 30.1478 18.076 30.4399 17.9926 30.7121C17.9092 30.9844 17.7417 31.2224 17.5147 31.3912C17.2877 31.56 17.0132 31.6507 16.7315 31.6501Z" fill="black"/>
</svg>
