<svg width="23" height="22" viewBox="0 0 23 22" fill="none" xmlns="http://www.w3.org/2000/svg">
<path fill-rule="evenodd" clip-rule="evenodd" d="M11.3545 0.00585938C17.2871 0.00585938 22.1041 4.79708 22.1041 10.7122C22.1041 16.621 17.2935 21.4186 11.3545 21.4186C5.42183 21.4186 0.604797 16.6274 0.604797 10.7122C0.604797 4.8035 5.41539 0.00585938 11.3545 0.00585938ZM8.83955 4.83561H13.8694C15.7588 4.83561 17.3 6.35775 17.3 8.20745V13.2042C17.3 15.0603 15.7588 16.576 13.8694 16.576H8.83955C6.95013 16.576 5.40894 15.0603 5.40894 13.2042V8.20745C5.40894 6.35133 6.95658 4.83561 8.83955 4.83561ZM11.3222 7.5395C13.16 7.5395 14.6497 9.02311 14.6497 10.8535C14.6497 12.684 13.16 14.1676 11.3222 14.1676C9.4844 14.1676 7.99479 12.684 7.99479 10.8535C7.99479 9.02311 9.4844 7.5395 11.3222 7.5395ZM11.3222 8.65702C12.5345 8.65702 13.5212 9.63967 13.5212 10.8471C13.5212 12.0545 12.5345 13.0372 11.3222 13.0372C10.1035 13.0372 9.12328 12.0545 9.12328 10.8471C9.12328 9.63967 10.1099 8.65702 11.3222 8.65702ZM14.54 7.07708C14.8367 7.07708 15.0817 7.31471 15.0817 7.61657C15.0817 7.91201 14.8431 8.15607 14.54 8.15607C14.2434 8.15607 13.9984 7.91843 13.9984 7.61657C13.9984 7.32114 14.2369 7.07708 14.54 7.07708ZM9.25225 5.79257H13.4567C15.0366 5.79257 16.3263 7.07066 16.3263 8.63776V12.8509C16.3263 14.418 15.0366 15.6961 13.4567 15.6961H9.25225C7.67236 15.6961 6.38266 14.418 6.38266 12.8509V8.63776C6.38266 7.07066 7.67236 5.79257 9.25225 5.79257Z" fill="white"/>
</svg>
