<svg width="23" height="22" viewBox="0 0 23 22" fill="none" xmlns="http://www.w3.org/2000/svg">
<path fill-rule="evenodd" clip-rule="evenodd" d="M11.6455 0.00585938C17.5782 0.00585938 22.3952 4.79708 22.3952 10.7122C22.3952 16.621 17.5846 21.4186 11.6455 21.4186C5.71291 21.4186 0.895874 16.6274 0.895874 10.7122C0.895874 4.8035 5.70646 0.00585938 11.6455 0.00585938ZM10.2591 8.58638H12.4645V9.71032H12.4967C12.8063 9.15798 13.5543 8.58638 14.6763 8.58638C17.0043 8.58638 17.4363 10.0314 17.4363 11.9068V15.7347H15.1342V12.3436C15.1342 11.5343 15.1148 10.4939 13.9348 10.4939C12.7353 10.4939 12.5548 11.3738 12.5548 12.2858V15.7347H10.2527V8.58638H10.2591ZM8.66633 6.60181C8.66633 7.25691 8.1311 7.7964 7.46691 7.7964C6.80916 7.7964 6.26748 7.26333 6.26748 6.60181C6.26748 5.94671 6.80271 5.40722 7.46691 5.40722C8.12465 5.40722 8.66633 5.94029 8.66633 6.60181ZM6.27393 8.58638H8.66633V15.7347H6.27393V8.58638Z" fill="white"/>
</svg>
