<svg width="28" height="28" viewBox="0 0 28 28" fill="none" xmlns="http://www.w3.org/2000/svg">
<path d="M26.2455 11.7354L14.5962 1.29854C14.3818 1.10643 14.1024 0.99999 13.8126 1C13.5228 1.00001 13.2434 1.10647 13.029 1.2986L1.38121 11.7354C1.26114 11.843 1.16521 11.9741 1.09956 12.1203C1.03391 12.2666 1 12.4248 1 12.5847V25.8521C1 26.1565 1.12273 26.4485 1.34118 26.6638C1.55963 26.8791 1.85592 27 2.16485 27H25.4619C25.7709 27 26.0672 26.8791 26.2856 26.6638C26.5041 26.4485 26.6268 26.1565 26.6268 25.8521V12.5847C26.6268 12.4248 26.5929 12.2666 26.5272 12.1204C26.4616 11.9741 26.3656 11.843 26.2455 11.7354Z" stroke="white" stroke-width="0.849992" stroke-linecap="round" stroke-linejoin="round"/>
<path d="M12.657 25.0713C12.2953 25.0713 12.3583 24.6531 12.3583 24.0557C12.3583 23.5181 12.3583 22.9207 12.3583 22.9207L12.3296 20.1727C12.1194 19.5156 11.8804 19.1572 10.9246 18.7988C10.5213 18.6475 10.0572 18.5598 9.67011 18.5001C9.37491 18.4545 8.56607 18.4403 7.99743 18.4403C7.80326 18.4403 5.90659 18.4403 5.90659 18.4403C5.90659 18.4403 5.54816 18.4403 4.8313 18.4403V21.1883L4.92295 23.996C4.92295 24.2873 4.92295 24.6532 4.92295 24.6532C4.92295 24.6532 4.97861 25.0713 4.8313 25.0713C4.68399 25.0713 4.44504 25.0713 4.44504 25.0713H4.08661L3.87549 25.0713L3.87548 24.6531L3.87549 24.5336V23.8765C3.87549 23.5852 3.87549 18.1416 3.87549 18.1416C3.87549 18.1416 3.84766 14.4976 3.84766 13.8405C3.84766 13.8405 3.75575 13.6613 4.08661 13.1237C4.56452 12.3471 5.34112 11.6302 5.34112 11.6302L5.99824 11.0328L6.65536 10.4354L8.02934 9.18092L9.94097 7.4485C9.94097 7.4485 11.1687 6.24752 12.0916 5.36643C12.789 4.70054 13.3142 4.27198 13.3142 4.52138C13.3142 5.59676 13.3142 6.55237 13.3142 6.55237V8.34453V11.9288V13.8405C13.3142 13.8405 13.3141 14.9158 13.3141 15.2742C13.3141 15.6326 13.1399 15.9778 12.8362 16.4092C12.626 16.7079 12.4778 16.8274 11.9999 17.1858C11.4621 17.5892 10.9246 17.7235 10.9246 17.7235C10.6857 17.8195 10.3272 17.9027 10.1577 17.9054C10.1022 17.9063 11.0605 17.9992 11.1636 18.0222C11.7012 18.1416 12.2699 18.5001 12.657 18.7988C13.0196 19.0785 13.3141 19.7545 13.3141 20.4117C13.3141 20.4117 13.3141 21.3675 13.3141 22.0843V23.2791C13.3141 23.2791 13.3141 23.9362 13.3141 24.1752C13.3141 24.2593 13.3141 24.5336 13.3141 24.5336C13.3141 24.5336 13.3141 24.6369 13.3141 24.7726C13.3141 25.026 13.3141 25.0713 13.3141 25.0713C13.0155 25.0713 13.0752 25.0713 12.657 25.0713ZM8.6856 17.4248C9.62871 17.4248 10.657 17.0066 11.0751 16.7676C11.4933 16.5287 11.7926 16.3593 12.0596 15.9313C12.2065 15.6959 12.3296 15.3425 12.3296 15.2742C12.3894 15.095 12.3583 14.856 12.3583 14.856V14.4976V13.9002V6.97055L8.8059 10.0183L7.79034 10.9133L6.53584 12.1081C6.53584 12.1081 5.81893 12.7055 5.46055 13.1237C5.10216 13.5418 5.11118 13.5312 5.01054 13.9002C4.83133 14.5573 4.8313 15.2951 4.8313 16.0508C4.8313 17.0663 4.8313 17.4248 4.8313 17.4248C5.72738 17.4248 7.75635 17.4248 8.6856 17.4248Z" fill="white"/>
<path d="M20.0338 25.0713C19.0075 25.0713 14.3897 25.0713 14.3897 25.0713V24.1753V22.1441V17.7598V10.9133V10.1367V9.36013V7.87096C14.3897 7.87096 14.361 5.29793 14.3897 4.52136C14.4032 4.15759 15.1339 4.98083 15.9745 5.89533C16.9285 6.93313 17.8862 7.87096 17.8862 7.87096L19.9173 9.77833L21.1718 10.9133L22.4263 12.0484L23.7405 13.2432L23.3675 13.5905L22.9425 14.0155C22.9425 14.0155 22.6349 14.1329 22.5175 14.0155C22.0925 13.5905 22.0925 13.5905 22.0925 13.5905L21.2425 12.7405L19.9675 11.4655L19.1175 10.6155L17.8862 9.36013L16.7581 8.34453L15.3743 6.97061V17.7598V24.1752L18.4209 24.1753C18.4209 24.1753 19.5708 24.1753 20.1533 24.1753C20.7774 24.1753 21.1034 24.1386 21.4676 23.9363C21.7671 23.7699 22.1421 23.0909 22.486 22.3831C22.7594 21.8205 23.0208 20.3768 23.0237 19.5404C23.0266 18.7041 23.0237 16.3495 23.0237 16.23C23.0237 16.1105 24.2185 16.1703 24.2185 16.1703C24.2185 16.1703 24.2175 18.2655 24.2185 19.5404C24.2185 19.5404 24.0823 21.6243 23.9198 22.1441C23.7422 22.7118 23.6662 22.8875 23.3675 23.3654C23.1702 23.681 22.8415 24.5935 22.1873 24.8921C21.7949 25.0713 20.6996 25.0713 20.0338 25.0713Z" fill="white"/>
<path d="M12.657 25.0713C12.2953 25.0713 12.3583 24.6531 12.3583 24.0557C12.3583 23.5181 12.3583 22.9207 12.3583 22.9207L12.3296 20.1727C12.1194 19.5156 11.8804 19.1572 10.9246 18.7988C10.5213 18.6475 10.0572 18.5598 9.67011 18.5001C9.37491 18.4545 8.56607 18.4403 7.99743 18.4403C7.80326 18.4403 5.90659 18.4403 5.90659 18.4403C5.90659 18.4403 5.54816 18.4403 4.8313 18.4403V21.1883L4.92295 23.996C4.92295 24.2873 4.92295 24.6532 4.92295 24.6532C4.92295 24.6532 4.97861 25.0713 4.8313 25.0713C4.68399 25.0713 4.44504 25.0713 4.44504 25.0713H4.08661L3.87549 25.0713L3.87548 24.6531L3.87549 24.5336V23.8765C3.87549 23.5852 3.87549 18.1416 3.87549 18.1416C3.87549 18.1416 3.84766 14.4976 3.84766 13.8405C3.84766 13.8405 3.75575 13.6613 4.08661 13.1237C4.56452 12.3471 5.34112 11.6302 5.34112 11.6302L5.99824 11.0328L6.65536 10.4354L8.02934 9.18092L9.94097 7.4485C9.94097 7.4485 11.1687 6.24752 12.0916 5.36643C12.789 4.70054 13.3142 4.27198 13.3142 4.52138C13.3142 5.59676 13.3142 6.55237 13.3142 6.55237V8.34453V11.9288V13.8405C13.3142 13.8405 13.3141 14.9158 13.3141 15.2742C13.3141 15.6326 13.1399 15.9778 12.8362 16.4092C12.626 16.7079 12.4778 16.8274 11.9999 17.1858C11.4621 17.5892 10.9246 17.7235 10.9246 17.7235C10.6857 17.8195 10.3272 17.9027 10.1577 17.9054C10.1022 17.9063 11.0605 17.9992 11.1636 18.0222C11.7012 18.1416 12.2699 18.5001 12.657 18.7988C13.0196 19.0785 13.3141 19.7545 13.3141 20.4117C13.3141 20.4117 13.3141 21.3675 13.3141 22.0843V23.2791C13.3141 23.2791 13.3141 23.9362 13.3141 24.1752C13.3141 24.2593 13.3141 24.5336 13.3141 24.5336C13.3141 24.5336 13.3141 24.6369 13.3141 24.7726C13.3141 25.026 13.3141 25.0713 13.3141 25.0713C13.0155 25.0713 13.0752 25.0713 12.657 25.0713ZM8.6856 17.4248C9.62871 17.4248 10.657 17.0066 11.0751 16.7676C11.4933 16.5287 11.7926 16.3593 12.0596 15.9313C12.2065 15.6959 12.3296 15.3425 12.3296 15.2742C12.3894 15.095 12.3583 14.856 12.3583 14.856V14.4976V13.9002V6.97055L8.8059 10.0183L7.79034 10.9133L6.53584 12.1081C6.53584 12.1081 5.81893 12.7055 5.46055 13.1237C5.10216 13.5418 5.11118 13.5312 5.01054 13.9002C4.83133 14.5573 4.8313 15.2951 4.8313 16.0508C4.8313 17.0663 4.8313 17.4248 4.8313 17.4248C5.72738 17.4248 7.75635 17.4248 8.6856 17.4248Z" stroke="white" stroke-width="0.339997"/>
<path d="M20.0338 25.0713C19.0075 25.0713 14.3897 25.0713 14.3897 25.0713V24.1753V22.1441V17.7598V10.9133V10.1367V9.36013V7.87096C14.3897 7.87096 14.361 5.29793 14.3897 4.52136C14.4032 4.15759 15.1339 4.98083 15.9745 5.89533C16.9285 6.93313 17.8862 7.87096 17.8862 7.87096L19.9173 9.77833L21.1718 10.9133L22.4263 12.0484L23.7405 13.2432L23.3675 13.5905L22.9425 14.0155C22.9425 14.0155 22.6349 14.1329 22.5175 14.0155C22.0925 13.5905 22.0925 13.5905 22.0925 13.5905L21.2425 12.7405L19.9675 11.4655L19.1175 10.6155L17.8862 9.36013L16.7581 8.34453L15.3743 6.97061V17.7598V24.1752L18.4209 24.1753C18.4209 24.1753 19.5708 24.1753 20.1533 24.1753C20.7774 24.1753 21.1034 24.1386 21.4676 23.9363C21.7671 23.7699 22.1421 23.0909 22.486 22.3831C22.7594 21.8205 23.0208 20.3768 23.0237 19.5404C23.0266 18.7041 23.0237 16.3495 23.0237 16.23C23.0237 16.1105 24.2185 16.1703 24.2185 16.1703C24.2185 16.1703 24.2175 18.2655 24.2185 19.5404C24.2185 19.5404 24.0823 21.6243 23.9198 22.1441C23.7422 22.7118 23.6662 22.8875 23.3675 23.3654C23.1702 23.681 22.8415 24.5935 22.1873 24.8921C21.7949 25.0713 20.6996 25.0713 20.0338 25.0713Z" stroke="white" stroke-width="0.339997"/>
</svg>
