<svg width="81" height="81" viewBox="0 0 81 81" fill="none" xmlns="http://www.w3.org/2000/svg">
<path d="M47.7469 6C32.5327 6 20.1649 18.358 20.1649 33.5723C20.1649 39.2915 21.9124 44.6072 24.9019 49.0144L10.6812 58.8604C7.25129 61.235 5.96797 64.4357 6.00061 67.262C6.03329 70.0883 7.20028 72.5132 8.62734 73.9402C10.0544 75.3673 12.4817 76.5369 15.308 76.5695C18.1343 76.6027 21.3351 75.3163 23.7097 71.8863L33.7809 57.3377C37.8798 59.7526 42.6519 61.1445 47.7469 61.1445C62.9611 61.1445 75.3191 48.7866 75.3191 33.5723C75.3191 18.358 62.9611 6 47.7469 6ZM47.7469 8.50928C61.6063 8.50928 72.8098 19.7128 72.8098 33.5723C72.8098 47.4318 61.6063 58.6376 47.7469 58.6376C39.3512 58.6376 31.9459 54.51 27.3964 48.187L26.9753 47.5799L26.9509 47.5988C24.248 43.5986 22.6717 38.7721 22.6717 33.574C22.6717 19.7146 33.8875 8.50928 47.7469 8.50928ZM47.7469 13.5131C36.6861 13.5131 27.6877 22.5114 27.6877 33.5723C27.6877 44.6331 36.6861 53.6217 47.7469 53.6217C58.8077 53.6217 67.7963 44.6331 67.7963 33.5723C67.7963 22.5114 58.8077 13.5131 47.7469 13.5131ZM47.7469 16.0198C57.4529 16.0198 65.2895 23.8662 65.2895 33.5723C65.2895 43.2784 57.4529 51.1149 47.7469 51.1149C38.0408 51.1149 30.1945 43.2784 30.1945 33.5723C30.1945 23.8662 38.0408 16.0198 47.7469 16.0198ZM26.4049 51.0242C27.9369 52.8932 29.7127 54.5541 31.678 55.9669L21.646 70.4616C19.6819 73.2986 17.4345 74.0845 15.335 74.0602C13.2354 74.0365 11.2568 73.0177 10.4046 72.1655C9.55241 71.3133 8.52184 69.3322 8.4976 67.2327C8.47344 65.1331 9.26903 62.8882 12.106 60.9241L26.4049 51.0242Z" fill="black"/>
<g clip-path="url(#clip0_80_1485)">
<path d="M49.3317 31.0697L48.6786 31.8461L48.1562 32.4673L47.6337 31.8461L46.9807 31.0697L46.9807 31.0697C46.6505 30.6771 46.1512 30.445 45.6601 30.445C45.23 30.445 44.8513 30.6041 44.5793 30.8778L44.5793 30.8778C44.3061 31.1526 44.1454 31.538 44.1454 31.9783C44.1454 32.5326 44.3749 33.142 45.0724 34.0081C45.779 34.8854 46.8511 35.8786 48.1562 37.0769C49.4613 35.8785 50.5334 34.8853 51.24 34.008C51.9375 33.142 52.167 32.5326 52.167 31.9783C52.167 31.5381 52.0063 31.1527 51.7331 30.8778L49.3317 31.0697ZM49.3317 31.0697C49.3317 31.0697 49.3317 31.0697 49.3317 31.0697M49.3317 31.0697L49.3317 31.0697M49.3317 31.0697C49.6619 30.6771 50.1612 30.445 50.6523 30.445M49.3317 31.0697L50.6523 30.445M50.6523 30.445C51.0824 30.445 51.461 30.6041 51.7331 30.8777L50.6523 30.445ZM46.8901 38.9265L46.8901 38.9265L46.8945 38.9305L47.6989 39.6562L48.1562 40.0687L48.6135 39.6562L49.4179 38.9305L49.4179 38.9306L49.4223 38.9265C49.4695 38.8832 49.5165 38.84 49.5633 38.7971C50.9173 37.5543 52.0943 36.4739 52.9326 35.4435C53.8086 34.3666 54.3857 33.2612 54.3857 31.9783C54.3857 29.8751 52.7528 28.2263 50.6523 28.2263C49.7264 28.2263 48.8471 28.5597 48.1562 29.1259C47.4652 28.5598 46.586 28.2263 45.6601 28.2263C43.5596 28.2263 41.9267 29.8751 41.9267 31.9783C41.9267 33.2612 42.5037 34.3666 43.3798 35.4435C44.2181 36.4739 45.3952 37.5544 46.7493 38.7973C46.796 38.8402 46.843 38.8832 46.8901 38.9265Z" fill="#E63946"/>
<path d="M49.3317 31.0697L48.6786 31.8461L48.1562 32.4673L47.6337 31.8461L46.9807 31.0697L46.9807 31.0697C46.6505 30.6771 46.1512 30.445 45.6601 30.445C45.23 30.445 44.8513 30.6041 44.5793 30.8778L44.5793 30.8778C44.3061 31.1526 44.1454 31.538 44.1454 31.9783C44.1454 32.5326 44.3749 33.142 45.0724 34.0081C45.779 34.8854 46.8511 35.8786 48.1562 37.0769C49.4613 35.8785 50.5334 34.8853 51.24 34.008C51.9375 33.142 52.167 32.5326 52.167 31.9783C52.167 31.5381 52.0063 31.1527 51.7331 30.8778L49.3317 31.0697ZM49.3317 31.0697C49.3317 31.0697 49.3317 31.0697 49.3317 31.0697M49.3317 31.0697L49.3317 31.0697M49.3317 31.0697C49.6619 30.6771 50.1612 30.445 50.6523 30.445M49.3317 31.0697L50.6523 30.445M50.6523 30.445C51.0824 30.445 51.461 30.6041 51.7331 30.8777L50.6523 30.445ZM46.8901 38.9265L46.8901 38.9265L46.8945 38.9305L47.6989 39.6562L48.1562 40.0687L48.6135 39.6562L49.4179 38.9305L49.4179 38.9306L49.4223 38.9265C49.4695 38.8832 49.5165 38.84 49.5633 38.7971C50.9173 37.5543 52.0943 36.4739 52.9326 35.4435C53.8086 34.3666 54.3857 33.2612 54.3857 31.9783C54.3857 29.8751 52.7528 28.2263 50.6523 28.2263C49.7264 28.2263 48.8471 28.5597 48.1562 29.1259C47.4652 28.5598 46.586 28.2263 45.6601 28.2263C43.5596 28.2263 41.9267 29.8751 41.9267 31.9783C41.9267 33.2612 42.5037 34.3666 43.3798 35.4435C44.2181 36.4739 45.3952 37.5544 46.7493 38.7973C46.796 38.8402 46.843 38.8832 46.8901 38.9265Z" stroke="black" stroke-width="1.36537"/>
<path d="M49.3317 31.0697L48.6786 31.8461L48.1562 32.4673L47.6337 31.8461L46.9807 31.0697L46.9807 31.0697C46.6505 30.6771 46.1512 30.445 45.6601 30.445C45.23 30.445 44.8513 30.6041 44.5793 30.8778L44.5793 30.8778C44.3061 31.1526 44.1454 31.538 44.1454 31.9783C44.1454 32.5326 44.3749 33.142 45.0724 34.0081C45.779 34.8854 46.8511 35.8786 48.1562 37.0769C49.4613 35.8785 50.5334 34.8853 51.24 34.008C51.9375 33.142 52.167 32.5326 52.167 31.9783C52.167 31.5381 52.0063 31.1527 51.7331 30.8778L49.3317 31.0697ZM49.3317 31.0697C49.3317 31.0697 49.3317 31.0697 49.3317 31.0697M49.3317 31.0697L49.3317 31.0697M49.3317 31.0697C49.6619 30.6771 50.1612 30.445 50.6523 30.445M49.3317 31.0697L50.6523 30.445M50.6523 30.445C51.0824 30.445 51.461 30.6041 51.7331 30.8777L50.6523 30.445ZM46.8901 38.9265L46.8901 38.9265L46.8945 38.9305L47.6989 39.6562L48.1562 40.0687L48.6135 39.6562L49.4179 38.9305L49.4179 38.9306L49.4223 38.9265C49.4695 38.8832 49.5165 38.84 49.5633 38.7971C50.9173 37.5543 52.0943 36.4739 52.9326 35.4435C53.8086 34.3666 54.3857 33.2612 54.3857 31.9783C54.3857 29.8751 52.7528 28.2263 50.6523 28.2263C49.7264 28.2263 48.8471 28.5597 48.1562 29.1259C47.4652 28.5598 46.586 28.2263 45.6601 28.2263C43.5596 28.2263 41.9267 29.8751 41.9267 31.9783C41.9267 33.2612 42.5037 34.3666 43.3798 35.4435C44.2181 36.4739 45.3952 37.5544 46.7493 38.7973C46.796 38.8402 46.843 38.8832 46.8901 38.9265Z" stroke="black" stroke-opacity="0.2" stroke-width="1.36537"/>
</g>
<defs>
<clipPath id="clip0_80_1485">
<rect width="13.6537" height="13.6537" fill="white" transform="translate(41.3296 27.2021)"/>
</clipPath>
</defs>
</svg>
