<svg width="24" height="25" viewBox="0 0 24 25" fill="none" xmlns="http://www.w3.org/2000/svg">
<path d="M12.9681 1V2.61641C14.5669 2.61641 16.0647 3.02051 17.4615 3.82871C18.791 4.62007 19.8512 5.68084 20.6422 7.01101C21.45 8.40852 21.8539 9.90707 21.8539 11.5066H23.4694C23.4694 9.60399 22.9898 7.83605 22.0306 6.2028C21.105 4.62007 19.8512 3.36568 18.2693 2.43961C16.6369 1.47987 14.8698 1 12.9681 1ZM4.61255 3.42461C4.15817 3.42461 3.76268 3.56773 3.4261 3.85397L0.826023 6.50588L0.901754 6.45537C0.481029 6.80896 0.20335 7.24673 0.0687184 7.7687C-0.0490846 8.29066 -0.0154266 8.79579 0.169692 9.28408C0.640904 10.5974 1.27199 11.9444 2.06295 13.3251C3.17367 15.2277 4.49475 16.9367 6.02618 18.4521C8.48322 20.9272 11.5377 22.8804 15.1896 24.3116H15.2148C15.7029 24.48 16.1909 24.5136 16.6789 24.4126C17.1838 24.3116 17.6298 24.0927 18.0168 23.756L20.5664 21.2051C20.903 20.8683 21.0713 20.4558 21.0713 19.9675C21.0713 19.4624 20.903 19.0414 20.5664 18.7047L17.2595 15.3709C16.923 15.0341 16.5022 14.8657 15.9974 14.8657C15.4925 14.8657 15.0718 15.0341 14.7352 15.3709L13.1449 16.9873C11.8658 16.3811 10.7551 15.6318 9.81271 14.7394C8.87029 13.8302 8.1214 12.7274 7.56604 11.4309L9.18162 9.81446C9.53503 9.44403 9.71174 9.00626 9.71174 8.50113C9.71174 7.97917 9.50979 7.55823 9.10589 7.23831L9.18162 7.31408L5.79899 3.85397C5.46241 3.56773 5.06693 3.42461 4.61255 3.42461ZM12.9681 4.23281V5.84922C13.9947 5.84922 14.9371 6.10178 15.7954 6.6069C16.6705 7.11203 17.3605 7.80237 17.8654 8.67792C18.3703 9.53664 18.6227 10.4795 18.6227 11.5066H20.2383C20.2383 10.1933 19.9101 8.97258 19.2538 7.84447C18.5974 6.75002 17.7223 5.87447 16.6285 5.21781C15.5009 4.56114 14.2808 4.23281 12.9681 4.23281ZM4.61255 5.04101C4.66304 5.04101 4.72194 5.06627 4.78925 5.11678L8.09615 8.50113C8.11298 8.56848 8.09615 8.62741 8.04566 8.67792L5.64753 11.052L5.82424 11.5571L6.1524 12.2643C6.42167 12.8368 6.733 13.3924 7.08641 13.9312C7.57445 14.6889 8.11298 15.3372 8.702 15.876C9.49296 16.6505 10.4438 17.3577 11.5545 17.9975C12.1099 18.3174 12.5811 18.5531 12.9681 18.7047L13.473 18.932L15.9216 16.4821C15.9553 16.4485 15.9805 16.4316 15.9974 16.4316C16.0142 16.4316 16.0394 16.4485 16.0731 16.4821L19.481 19.8917C19.5146 19.9254 19.5315 19.9507 19.5315 19.9675C19.5315 19.9675 19.5146 19.9843 19.481 20.018L16.9566 22.5184C16.5864 22.8383 16.1825 22.9225 15.7449 22.771C12.3118 21.4408 9.45089 19.6223 7.16214 17.3156C5.74851 15.9012 4.51157 14.2932 3.45135 12.4916C2.69404 11.1951 2.10503 9.94074 1.6843 8.72844V8.70318C1.61699 8.55164 1.60857 8.37485 1.65906 8.1728C1.70955 7.95391 1.80211 7.78553 1.93674 7.66767L4.43584 5.11678C4.48633 5.06627 4.54523 5.04101 4.61255 5.04101ZM12.9681 7.46562V9.08203C13.6413 9.08203 14.2135 9.31775 14.6847 9.7892C15.1559 10.2607 15.3915 10.8331 15.3915 11.5066H17.0071C17.0071 10.7826 16.822 10.1091 16.4517 9.48613C16.0983 8.86314 15.6103 8.37485 14.9876 8.02126C14.365 7.65083 13.6918 7.46562 12.9681 7.46562Z" fill="black"/>
</svg>
