<svg width="37" height="34" viewBox="0 0 37 34" fill="none" xmlns="http://www.w3.org/2000/svg">
<path d="M21.332 31.7994L21.332 25.921C21.332 25.1237 21.9962 24.4778 22.8156 24.4778C25.7391 24.4778 27.3293 21.5603 27.5497 15.8023L22.8156 15.8023C21.9962 15.8023 21.332 15.1557 21.332 14.3587L21.332 1.94664C21.332 1.14979 21.9962 0.503714 22.8156 0.503714L35.4378 0.503715C36.2575 0.503715 36.9211 1.1503 36.9211 1.94664L36.9211 14.3587C36.9211 17.119 36.6355 19.6521 36.0724 21.8883C35.4949 24.1813 34.6084 26.1861 33.4383 27.8473C32.2343 29.5545 30.7283 30.8942 28.9617 31.8275C27.1832 32.7664 25.115 33.2427 22.8151 33.2427C21.9962 33.2427 21.332 32.5967 21.332 31.7994ZM2.19811 24.4777C1.37912 24.4777 0.714375 25.1242 0.714375 25.9209L0.714375 31.7993C0.714375 32.5966 1.37902 33.2426 2.1981 33.2426C4.49708 33.2426 6.5656 32.7662 8.34348 31.8274C10.1104 30.8941 11.6172 29.5544 12.8214 27.8472C13.9911 26.186 14.8776 24.1811 15.4552 21.8876C16.018 19.6507 16.3037 17.1176 16.3037 14.3586L16.3037 1.94654C16.3037 1.14969 15.6392 0.503611 14.82 0.503611L2.19821 0.503609C1.37923 0.503609 0.715102 1.15019 0.715102 1.94653L0.715101 14.3587C0.715101 15.1556 1.37913 15.8023 2.19821 15.8023L6.86483 15.8023C6.64774 21.5602 5.08072 24.4777 2.19811 24.4777Z" fill="#5F5C60"/>
</svg>
