<svg width="24" height="24" viewBox="0 0 24 24" fill="none" xmlns="http://www.w3.org/2000/svg">
<path d="M21.4918 10.1986H14.2627L12.0242 3.22632L9.78576 10.1986H2.55664L8.42801 14.4553L6.18955 21.3909L12.0609 17.0974L17.9323 21.3909L15.6204 14.4553L21.4918 10.1986Z" fill="#81864A"/>
<path d="M23.8036 9.42818H14.8498L12.0609 0.841309L9.27201 9.42818H0.318176L7.5473 14.7124L4.7584 23.2993L12.0609 18.0151L19.3267 23.336L16.5378 14.7491L23.8036 9.42818ZM12.0609 17.0977L6.18954 21.3911L8.428 14.4555L2.55664 10.1988H9.78576L12.0242 3.22655L14.2627 10.1988H21.4918L15.6204 14.4555L17.9323 21.3911L12.0609 17.0977Z" fill="white"/>
</svg>
