<svg width="18" height="17" viewBox="0 0 18 17" fill="none" xmlns="http://www.w3.org/2000/svg">
<path d="M17.0166 0.792701C17.0542 0.698542 17.0635 0.595393 17.0431 0.496041C17.0227 0.396689 16.9736 0.305503 16.9019 0.233787C16.8302 0.162072 16.739 0.112981 16.6397 0.0926004C16.5403 0.0722199 16.4372 0.0814462 16.343 0.119135L1.26861 6.1491H1.26757L0.799183 6.33562C0.71047 6.37101 0.633264 6.43023 0.576094 6.50674C0.518924 6.58325 0.484015 6.67408 0.475223 6.76918C0.466431 6.86429 0.484098 6.95997 0.526272 7.04567C0.568447 7.13136 0.633488 7.20373 0.71421 7.25478L1.13907 7.52421L1.14011 7.52628L6.3162 10.8195L9.60942 15.9956L9.61149 15.9977L9.88091 16.4225C9.93213 16.5029 10.0045 16.5677 10.0902 16.6096C10.1758 16.6515 10.2713 16.6689 10.3663 16.66C10.4612 16.6512 10.5518 16.6162 10.6282 16.5592C10.7045 16.5021 10.7636 16.425 10.799 16.3365L17.0166 0.792701ZM15.1171 2.75122L7.35142 10.5169L7.12862 10.1667C7.0878 10.1024 7.03331 10.0479 6.96904 10.0071L6.61879 9.78428L14.3845 2.01859L15.6052 1.53051L15.1181 2.75122H15.1171Z" fill="#EEEEEE"/>
</svg>
