<svg width="22" height="22" viewBox="0 0 22 22" fill="none" xmlns="http://www.w3.org/2000/svg">
<path fill-rule="evenodd" clip-rule="evenodd" d="M10.9366 0.00585938C16.8692 0.00585938 21.6863 4.79708 21.6863 10.7122C21.6863 16.621 16.8757 21.4186 10.9366 21.4186C5.00399 21.4186 0.186951 16.6274 0.186951 10.7122C0.186951 4.8035 4.99754 0.00585938 10.9366 0.00585938ZM13.2645 4.78423C13.4644 6.46694 14.4059 7.46885 16.0374 7.57161V9.45984C15.0895 9.54976 14.2576 9.24148 13.2903 8.66345V12.1958C13.2903 16.6916 8.37011 18.0917 6.39687 14.874C5.12651 12.806 5.90678 9.16441 9.98224 9.02311V11.0205C9.67271 11.0719 9.34384 11.149 9.04076 11.2517C8.13152 11.5536 7.62208 12.1316 7.76395 13.14C8.04124 15.0731 11.6008 15.6448 11.3042 11.8683V4.79065H13.271L13.2645 4.78423Z" fill="white"/>
</svg>
